PathFileType	4	(X/Y/Z)	/home/ubuntu/injury_detection/risk_analysis_package/data/KD_injured/trc_data/trials/KD_injured.trc
DataRate	CameraRate	NumFrames	NumMarkers	Units	OrigDataRate	OrigDataStartFrame	OrigNumFrames
30	30	4	105	m	30	0	98
Frame#	Time	BLTI			BRTI			C7			CHIN			CLAV			FBBT			FLTI			FRBT			FRTI			LAKI			LANK			LBAC			LBHD			LBWT			LELB			LELS			LELSO			LFBB			LFBT			LFFB			LFFT			LFHD			LFIN			LFLB			LFLT			LFMB			LFMT			LFPI			LFRM			LFWT			LHAP			LHBA			LHEB			LHEE			LHFR			LHME			LHPI			LHTH			LHTO			LKNE			LKNI			LMT5			LSCA			LSHN			LSHO			LTIA			LTIB			LTIC			LTOE			LTOP			LTOS			LUMB			LUMC			LWRA			LWRB			NOSE			RAKI			RANK			RBAC			RBHD			RBWT			RELB			RELS			RELSO			RFBB			RFBT			RFFB			RFFT			RFHD			RFIN			RFLB			RFLT			RFMB			RFMT			RFPI			RFRM			RFWT			RHAP			RHBA			RHEB			RHEE			RHFR			RHME			RHPI			RHTH			RHTO			RIBL			RIBR			RITL			RITR			RKNE			RKNI			RMT5			RSCA			RSHN			RSHO			RTIA			RTIB			RTIC			RTOE			RTOP			RTOS			RWRA			RWRB			THD		
		X1	Y1	Z1	X2	Y2	Z2	X3	Y3	Z3	X4	Y4	Z4	X5	Y5	Z5	X6	Y6	Z6	X7	Y7	Z7	X8	Y8	Z8	X9	Y9	Z9	X10	Y10	Z10	X11	Y11	Z11	X12	Y12	Z12	X13	Y13	Z13	X14	Y14	Z14	X15	Y15	Z15	X16	Y16	Z16	X17	Y17	Z17	X18	Y18	Z18	X19	Y19	Z19	X20	Y20	Z20	X21	Y21	Z21	X22	Y22	Z22	X23	Y23	Z23	X24	Y24	Z24	X25	Y25	Z25	X26	Y26	Z26	X27	Y27	Z27	X28	Y28	Z28	X29	Y29	Z29	X30	Y30	Z30	X31	Y31	Z31	X32	Y32	Z32	X33	Y33	Z33	X34	Y34	Z34	X35	Y35	Z35	X36	Y36	Z36	X37	Y37	Z37	X38	Y38	Z38	X39	Y39	Z39	X40	Y40	Z40	X41	Y41	Z41	X42	Y42	Z42	X43	Y43	Z43	X44	Y44	Z44	X45	Y45	Z45	X46	Y46	Z46	X47	Y47	Z47	X48	Y48	Z48	X49	Y49	Z49	X50	Y50	Z50	X51	Y51	Z51	X52	Y52	Z52	X53	Y53	Z53	X54	Y54	Z54	X55	Y55	Z55	X56	Y56	Z56	X57	Y57	Z57	X58	Y58	Z58	X59	Y59	Z59	X60	Y60	Z60	X61	Y61	Z61	X62	Y62	Z62	X63	Y63	Z63	X64	Y64	Z64	X65	Y65	Z65	X66	Y66	Z66	X67	Y67	Z67	X68	Y68	Z68	X69	Y69	Z69	X70	Y70	Z70	X71	Y71	Z71	X72	Y72	Z72	X73	Y73	Z73	X74	Y74	Z74	X75	Y75	Z75	X76	Y76	Z76	X77	Y77	Z77	X78	Y78	Z78	X79	Y79	Z79	X80	Y80	Z80	X81	Y81	Z81	X82	Y82	Z82	X83	Y83	Z83	X84	Y84	Z84	X85	Y85	Z85	X86	Y86	Z86	X87	Y87	Z87	X88	Y88	Z88	X89	Y89	Z89	X90	Y90	Z90	X91	Y91	Z91	X92	Y92	Z92	X93	Y93	Z93	X94	Y94	Z94	X95	Y95	Z95	X96	Y96	Z96	X97	Y97	Z97	X98	Y98	Z98	X99	Y99	Z99	X100	Y100	Z100	X101	Y101	Z101	X102	Y102	Z102	X103	Y103	Z103	X104	Y104	Z104	X105	Y105	Z105

1	0	0.395687	-0.271845	74.657	0.48469	-0.187058	74.6267	0.28422	0.324615	74.2557	0.316392	0.191862	74.1843	0.262686	0.207038	74.1977	0.401061	-0.2211	74.7257	0.298203	-0.218487	74.662	0.483584	-0.128724	74.7068	0.41453	-0.107489	74.5988	0.44605	-0.275298	74.7958	0.514236	-0.279458	74.7785	0.433828	0.340495	74.0926	0.219106	0.0714414	74.2985	0.264596	-0.0277946	73.9813	0.493356	0.525233	74.0878	0.463109	0.499747	74.0464	0.524529	0.5084	74.076	0.23027	-0.160074	74.4131	0.272407	-0.117115	74.2765	0.112685	-0.121708	74.4953	0.13747	-0.0693439	74.2774	0.295869	0.036655	74.1988	0.635429	0.792855	73.9697	0.18945	-0.0927987	74.4709	0.253898	-0.00711986	74.326	0.140557	-0.178216	74.406	0.176804	-0.121269	74.2355	0.54772	-0.11353	74.7622	0.528323	0.632655	74.0654	0.328081	0.0761898	74.1487	0.467728	0.326492	74.0839	0.460011	0.435352	74.1166	0.528021	-0.275469	74.8612	0.51981	-0.316249	74.8446	0.51131	0.38468	74.0658	0.72071	0.842513	73.9566	0.606725	0.815362	74.0184	0.575337	0.783304	73.9251	0.514393	0.363224	74.1418	0.203903	-0.14279	74.5111	0.140355	-0.202762	74.5235	0.506642	-0.103235	74.7587	0.375093	0.32632	74.2382	0.308452	-0.18791	74.5469	0.459885	0.246197	74.2521	0.205564	-0.165583	74.5845	0.343591	-0.192573	74.6772	0.421843	-0.239665	74.7522	0.489002	-0.0587585	74.7407	0.54812	-0.158932	74.7737	0.460215	-0.117644	74.7898	0.337735	0.120326	73.9201	0.317454	0.0912754	73.9264	0.538963	0.755728	73.9714	0.55407	0.763823	74.0255	0.292813	0.103368	74.1352	0.563979	-0.114795	74.732	0.589703	-0.167084	74.7712	0.287309	0.396851	74.0473	0.15313	0.111978	74.2456	0.207612	-0.00291085	73.9616	0.203095	0.0560056	73.8855	0.234002	0.0805999	73.9294	0.168734	0.0730907	73.8992	0.211249	-0.142806	74.3564	0.140157	-0.100506	74.2143	0.27247	-0.0520617	74.4532	0.249361	0.00159776	74.2591	0.205217	0.107422	74.1286	0.203224	-0.263826	74.0471	0.202102	-0.092992	74.4251	0.104134	0.0242822	74.2981	0.278658	-0.113161	74.343	0.231262	-0.0620714	74.2097	0.639689	0.017051	74.8546	0.193046	-0.0480821	73.9141	0.138065	0.149536	74.082	0.183678	0.208594	74.0565	0.181575	0.174411	73.9558	0.661353	-0.135721	74.7327	0.636754	-0.169973	74.7269	0.180251	0.113741	74.0164	0.217602	-0.350532	74.0861	0.195611	-0.270647	73.988	0.249197	-0.194848	74.0509	0.12379	0.170262	74.009	0.356093	0.111531	74.1013	0.183288	0.211288	73.9325	0.347541	0.188714	74.2001	0.208841	0.22703	74.1581	0.247359	-0.138036	74.4882	0.316254	-0.107033	74.4375	0.609265	0.0126044	74.8322	0.205844	0.379905	74.165	0.38442	-0.179158	74.6186	0.119442	0.294602	74.1717	0.309877	-0.100849	74.5282	0.399304	-0.11206	74.6179	0.515792	-0.117213	74.7308	0.577483	0.0470331	74.8207	0.659311	-0.0348718	74.8539	0.599957	0.00460696	74.7889	0.196765	-0.166663	74.0151	0.176266	-0.188211	73.969	0.175507	-0.0126116	74.1811
2	0.0333333	0.396592	-0.27018	75.2606	0.489538	-0.182322	75.2241	0.273028	0.330647	74.8558	0.307213	0.197501	74.7863	0.253764	0.211253	74.8008	0.402161	-0.219627	75.3293	0.298717	-0.217645	75.2667	0.489152	-0.124595	75.3046	0.416705	-0.104564	75.1985	0.448419	-0.27379	75.399	0.516453	-0.276926	75.3804	0.419077	0.346975	74.6896	0.215666	0.0769317	74.905	0.256158	-0.0274365	74.587	0.47455	0.53377	74.681	0.444532	0.506974	74.6402	0.505913	0.51716	74.6693	0.227806	-0.158615	75.0191	0.268162	-0.114894	74.8824	0.110132	-0.122645	75.1022	0.132193	-0.070088	74.8841	0.290779	0.0421825	74.8041	0.612184	0.800308	74.5549	0.186134	-0.092152	75.0772	0.24744	-0.00523683	74.932	0.138505	-0.178653	75.0126	0.172425	-0.121191	74.8419	0.545416	-0.110194	75.3628	0.507913	0.641187	74.6555	0.319202	0.0792945	74.753	0.453958	0.334179	74.6804	0.443731	0.443356	74.7115	0.531904	-0.272546	75.4625	0.524136	-0.313548	75.4462	0.495762	0.39314	74.661	0.696639	0.850839	74.5399	0.583244	0.823945	74.6029	0.552155	0.788233	74.5108	0.500288	0.372968	74.7371	0.202011	-0.142188	75.1171	0.139581	-0.203209	75.13	0.503992	-0.100837	75.3606	0.363746	0.334618	74.8364	0.307497	-0.186641	75.1516	0.450915	0.257118	74.8502	0.204782	-0.165357	75.1905	0.344006	-0.191426	75.2815	0.423221	-0.238164	75.3556	0.484763	-0.0567666	75.3431	0.547242	-0.155581	75.3744	0.458741	-0.11628	75.3929	0.326043	0.120955	74.5235	0.306449	0.0916564	74.5305	0.516341	0.761715	74.5581	0.531532	0.771696	74.6118	0.284629	0.107635	74.7393	0.56978	-0.108545	75.3279	0.597768	-0.160709	75.3655	0.270015	0.398263	74.646	0.147569	0.114904	74.8529	0.198629	-0.00374314	74.5676	0.193298	0.0548975	74.4902	0.224436	0.0808738	74.5332	0.15872	0.070862	74.5048	0.209537	-0.143579	74.9606	0.136064	-0.101833	74.8198	0.269732	-0.0520576	75.0575	0.243339	0.00286958	74.8641	0.196806	0.109407	74.7348	0.211039	-0.262945	74.6545	0.200095	-0.0944841	75.0298	0.0980922	0.0215669	74.9048	0.276011	-0.112114	74.9466	0.226288	-0.0608074	74.8146	0.646783	0.0225299	75.4511	0.187968	-0.0492363	74.5201	0.127564	0.14851	74.6872	0.172414	0.207762	74.6608	0.169362	0.172875	74.5603	0.667455	-0.127146	75.3253	0.643359	-0.161783	75.3196	0.171507	0.112631	74.6213	0.230476	-0.348564	74.6937	0.201747	-0.270703	74.5958	0.254076	-0.192022	74.6561	0.112932	0.167185	74.6148	0.346253	0.115603	74.7046	0.169959	0.20855	74.536	0.33914	0.195511	74.802	0.198703	0.228769	74.762	0.24741	-0.138911	75.092	0.314421	-0.105838	75.0402	0.615783	0.0180717	75.4296	0.19097	0.381449	74.7659	0.388974	-0.177038	75.2186	0.107604	0.293288	74.7763	0.310061	-0.10035	75.1308	0.402117	-0.109616	75.218	0.521719	-0.112388	75.3278	0.583049	0.0521782	75.4199	0.667287	-0.0288765	75.4485	0.60517	0.0109313	75.3862	0.19934	-0.166468	74.6219	0.178247	-0.189362	74.5768	0.171258	-0.0102398	74.7902
3	0.0666667	0.367574	-0.286971	76.423	0.482611	-0.172471	76.3854	0.264024	0.33629	76.0166	0.300961	0.200971	75.9502	0.245788	0.215762	75.9637	0.374273	-0.237521	76.4924	0.272332	-0.229428	76.4278	0.484052	-0.112535	76.4643	0.408768	-0.095631	76.3596	0.416145	-0.294817	76.5622	0.484368	-0.301137	76.5453	0.410884	0.350656	75.8508	0.206124	0.083893	76.0699	0.248206	-0.0258874	75.7501	0.462516	0.537299	75.8362	0.433008	0.508835	75.7962	0.494213	0.520652	75.825	0.209601	-0.161577	76.18	0.254979	-0.116818	76.0452	0.0911304	-0.123946	76.2606	0.119567	-0.0694641	76.0439	0.282044	0.0462184	75.9706	0.597853	0.801425	75.7029	0.168158	-0.0950815	76.2381	0.234926	-0.00713259	76.0955	0.120089	-0.179366	76.171	0.160148	-0.120837	76.0021	0.522728	-0.1363	76.5312	0.494671	0.644177	75.807	0.312548	0.0788378	75.9176	0.444856	0.337338	75.8416	0.433058	0.447389	75.8694	0.49735	-0.298353	76.6281	0.488124	-0.338744	76.611	0.485879	0.396294	75.8204	0.681895	0.852917	75.6886	0.56761	0.825638	75.7499	0.538882	0.787742	75.6579	0.490556	0.378555	75.8972	0.182249	-0.146881	76.2775	0.117352	-0.205708	76.2881	0.48219	-0.124304	76.5275	0.354198	0.34081	75.9975	0.285238	-0.197492	76.3134	0.441889	0.264903	76.0137	0.18273	-0.171529	76.3503	0.318624	-0.205831	76.4439	0.393826	-0.257388	76.5187	0.466539	-0.0788972	76.5099	0.521415	-0.181639	76.5422	0.434819	-0.13739	76.5579	0.31976	0.122104	75.6872	0.30026	0.0928527	75.6944	0.502323	0.761493	75.7052	0.516646	0.773126	75.7588	0.277696	0.110483	75.9046	0.565161	-0.0957934	76.4851	0.594501	-0.146359	76.5239	0.262056	0.400629	75.8061	0.139103	0.121805	76.0165	0.191018	-0.00142029	75.7306	0.185849	0.0496527	75.6577	0.217346	0.07599	75.7007	0.151636	0.0672031	75.6712	0.199374	-0.139754	76.1256	0.127577	-0.0989637	75.9831	0.258574	-0.0470744	76.2227	0.234055	0.00646847	76.0285	0.18989	0.11342	75.8989	0.188776	-0.264351	75.8302	0.189347	-0.0901721	76.1949	0.088256	0.0248991	76.0679	0.265825	-0.10803	76.1119	0.217871	-0.057628	75.9788	0.643382	0.0409205	76.6009	0.175578	-0.0532717	75.6903	0.121586	0.150703	75.8511	0.165157	0.208457	75.8236	0.163665	0.17049	75.724	0.66287	-0.113785	76.4808	0.639102	-0.148839	76.4771	0.163237	0.112016	75.7868	0.205558	-0.349786	75.871	0.179721	-0.272994	75.7714	0.233995	-0.194757	75.8306	0.106071	0.167441	75.7775	0.339592	0.118327	75.8687	0.163184	0.20903	75.6992	0.33124	0.200477	75.9657	0.190797	0.23223	75.9243	0.236868	-0.133587	76.258	0.303123	-0.101178	76.2048	0.611848	0.0352382	76.5805	0.18266	0.385477	75.925	0.381821	-0.16772	76.3823	0.0992436	0.297338	75.9354	0.300232	-0.0936931	76.2947	0.394652	-0.100211	76.3796	0.517106	-0.0996218	76.4864	0.578361	0.0685712	76.5707	0.664437	-0.0103746	76.5997	0.600116	0.026083	76.5378	0.180303	-0.168118	75.7954	0.158913	-0.191402	75.7506	0.162026	-0.00479653	75.9562
4	0.1	0.360402	-0.280894	75.14	0.444838	-0.188865	75.1085	0.246988	0.333378	74.7287	0.283836	0.197286	74.6661	0.227813	0.212327	74.6778	0.367559	-0.229168	75.2078	0.264519	-0.224475	75.1448	0.446809	-0.12672	75.1857	0.375716	-0.109424	75.0783	0.41154	-0.283779	75.2789	0.479609	-0.28926	75.26	0.393951	0.344322	74.5631	0.191616	0.0812527	74.7887	0.23205	-0.0335917	74.4633	0.451499	0.525817	74.542	0.419855	0.497344	74.5037	0.482286	0.508232	74.5302	0.196379	-0.165395	74.8958	0.238452	-0.122979	74.7588	0.0797248	-0.125716	74.9784	0.10369	-0.0749323	74.7601	0.269729	0.0428865	74.6915	0.587893	0.784325	74.3992	0.156565	-0.097604	74.9536	0.219891	-0.01274	74.8085	0.106594	-0.182886	74.8893	0.142598	-0.127168	74.7182	0.510978	-0.123479	75.2379	0.485067	0.631462	74.5102	0.293758	0.0700819	74.6326	0.427365	0.327285	74.5528	0.420114	0.437743	74.5781	0.495658	-0.282804	75.3417	0.486946	-0.324153	75.3266	0.469677	0.384055	74.5289	0.672414	0.833194	74.3796	0.560731	0.8103	74.4471	0.526343	0.771504	74.3576	0.476004	0.367809	74.606	0.171133	-0.148268	74.9936	0.106547	-0.206685	75.0072	0.469756	-0.11306	75.2359	0.338612	0.336298	74.7099	0.274973	-0.196121	75.029	0.425373	0.257537	74.7257	0.172948	-0.170272	75.0672	0.310747	-0.199722	75.1592	0.387672	-0.248099	75.2345	0.451455	-0.0686171	75.2181	0.511878	-0.168653	75.2501	0.424436	-0.126759	75.2689	0.30464	0.114594	74.4027	0.285354	0.0854668	74.4096	0.49165	0.747354	74.4071	0.508614	0.759388	74.4598	0.264035	0.104736	74.6233	0.527946	-0.113	75.2088	0.553564	-0.164313	75.2489	0.244813	0.393756	74.5171	0.123989	0.115302	74.7334	0.175324	-0.00876212	74.4429	0.160045	0.0350025	74.3837	0.192255	0.0638509	74.424	0.126086	0.0530586	74.3969	0.169943	-0.148743	74.8399	0.102441	-0.10575	74.696	0.232694	-0.0580053	74.936	0.213118	-0.00572079	74.7417	0.176185	0.104619	74.6167	0.170999	-0.268327	74.5737	0.161609	-0.0976871	74.9083	0.0679942	0.0206577	74.7792	0.238012	-0.120913	74.8265	0.194268	-0.0693741	74.6925	0.61113	0.0199013	75.3264	0.151992	-0.0660243	74.4222	0.104835	0.143404	74.563	0.144619	0.202892	74.5407	0.139621	0.159538	74.4437	0.624701	-0.135726	75.2072	0.59909	-0.169462	75.203	0.140974	0.104478	74.5094	0.189356	-0.350788	74.6196	0.161021	-0.280694	74.5158	0.215302	-0.198323	74.5691	0.0836452	0.159573	74.4988	0.322274	0.11189	74.5844	0.14797	0.199532	74.412	0.312764	0.195952	74.6798	0.173126	0.22881	74.6381	0.205686	-0.142179	74.9725	0.27446	-0.114486	74.9196	0.579704	0.0163167	75.3053	0.166377	0.382045	74.6361	0.3445	-0.179493	75.1021	0.0824511	0.296699	74.6501	0.269724	-0.104444	75.0098	0.360865	-0.11273	75.0978	0.479805	-0.114771	75.2085	0.548957	0.0518689	75.2943	0.628841	-0.0326463	75.3261	0.568172	0.00777406	75.2625	0.160708	-0.174577	74.5334	0.138756	-0.200723	74.4905	0.151507	-0.0124208	74.6776
